<svg width="23" height="23" viewBox="0 0 23 23" fill="none" xmlns="http://www.w3.org/2000/svg">
<path d="M11.4992 11.4607C13.3239 11.4607 14.8031 9.9989 14.8031 8.19568C14.8031 6.39246 13.3239 4.93066 11.4992 4.93066C9.67451 4.93066 8.19531 6.39246 8.19531 8.19568C8.19531 9.9989 9.67451 11.4607 11.4992 11.4607Z" stroke="#1C274C"/>
<path d="M11.5 22.5C17.5751 22.5 22.5 17.5751 22.5 11.5C22.5 5.42487 17.5751 0.5 11.5 0.5C5.42487 0.5 0.5 5.42487 0.5 11.5C0.5 17.5751 5.42487 22.5 11.5 22.5Z" stroke="#1C274C"/>
<path d="M18.0685 20.3241C17.8934 17.1322 16.9191 14.8047 11.4995 14.8047C6.08005 14.8047 5.1058 17.1322 4.93066 20.3241" stroke="#1C274C" stroke-linecap="round"/>
</svg>
